HIERARCHY
ROOT root
{
	OFFSET 0.000000 0.000000 0.000000
	CHANNELS 6 Xposition Yposition Zposition Zrotation Yrotation Xrotation
	JOINT lhip
	{
		OFFSET 0.058581 -0.082280 -0.017664
		CHANNELS 3 Zrotation Yrotation Xrotation
		JOINT lknee
		{
			OFFSET 0.043451 -0.386469 0.008037
			CHANNELS 3 Zrotation Yrotation Xrotation
			JOINT lankle
			{
				OFFSET -0.014790 -0.426874 -0.037428
				CHANNELS 3 Zrotation Yrotation Xrotation
				JOINT ltoe
				{
					OFFSET 0.041054 -0.060286 0.122042
					CHANNELS 3 Zrotation Yrotation Xrotation
					End Site
					{
						OFFSET 0.000000 0.000000 0.000000
					}
				}
			}
		}
	}
	JOINT rhip
	{
		OFFSET -0.060310 -0.090513 -0.013543
		CHANNELS 3 Zrotation Yrotation Xrotation
		JOINT rknee
		{
			OFFSET -0.043257 -0.383688 -0.004843
			CHANNELS 3 Zrotation Yrotation Xrotation
			JOINT rankle
			{
				OFFSET 0.019056 -0.420046 -0.034562
				CHANNELS 3 Zrotation Yrotation Xrotation
				JOINT rtoe
				{
					OFFSET -0.034840 -0.062106 0.130323
					CHANNELS 3 Zrotation Yrotation Xrotation
					End Site
					{
						OFFSET 0.000000 0.000000 0.000000
					}
				}
			}
		}
	}
	JOINT lowerback
	{
		OFFSET 0.004439 0.124404 -0.038385
		CHANNELS 3 Zrotation Yrotation Xrotation
		JOINT upperback
		{
			OFFSET 0.004488 0.137956 0.026820
			CHANNELS 3 Zrotation Yrotation Xrotation
			JOINT chest
			{
				OFFSET -0.002265 0.056032 0.002855
				CHANNELS 3 Zrotation Yrotation Xrotation
				JOINT lowerneck
				{
					OFFSET -0.013390 0.211636 -0.033468
					CHANNELS 3 Zrotation Yrotation Xrotation
					JOINT upperneck
					{
						OFFSET 0.010113 0.088937 0.050410
						CHANNELS 3 Zrotation Yrotation Xrotation
						End Site
						{
							OFFSET 0.000000 0.000000 0.000000
						}
					}
				}
				JOINT lclavicle
				{
					OFFSET 0.071702 0.114000 -0.018898
					CHANNELS 3 Zrotation Yrotation Xrotation
					JOINT lshoulder
					{
						OFFSET 0.122921 0.045205 -0.019046
						CHANNELS 3 Zrotation Yrotation Xrotation
						JOINT lelbow
						{
							OFFSET 0.255332 -0.015649 -0.022946
							CHANNELS 3 Zrotation Yrotation Xrotation
							JOINT lwrist
							{
								OFFSET 0.265709 0.012698 -0.007375
								CHANNELS 3 Zrotation Yrotation Xrotation
								End Site
								{
									OFFSET 0.000000 0.000000 0.000000
								}
							}
						}
					}
				}
				JOINT rclavicle
				{
					OFFSET -0.082954 0.112472 -0.023707
					CHANNELS 3 Zrotation Yrotation Xrotation
					JOINT rshoulder
					{
						OFFSET -0.113228 0.046853 -0.008472
						CHANNELS 3 Zrotation Yrotation Xrotation
						JOINT relbow
						{
							OFFSET -0.260127 -0.014369 -0.031269
							CHANNELS 3 Zrotation Yrotation Xrotation
							JOINT rwrist
							{
								OFFSET -0.269108 0.006794 -0.006027
								CHANNELS 3 Zrotation Yrotation Xrotation
								End Site
								{
									OFFSET 0.000000 0.000000 0.000000
								}
							}
						}
					}
				}
			}
		}
	}
}
MOTION
Frames: 7
Frame Time: 0.033333
0.415025 0.348857 0.911943 91.893222 5.719303 80.326832 1.028386 -2.592909 -21.458082 -7.383490 2.694965 48.783973 10.020087 16.719305 -28.537650 0.000000 -0.000000 0.000000 -2.048561 -3.258753 -3.644881 -0.579645 -4.620097 72.660209 2.505131 -13.079648 -25.633526 0.000000 -0.000000 0.000000 -1.551138 5.300415 24.902326 1.698033 0.311442 -7.036083 1.183520 0.273018 2.633914 5.088178 -3.069192 -3.458527 1.435310 -8.763315 13.230234 -22.030946 5.719394 -0.748537 -53.727961 2.468146 3.124421 6.114842 -32.982584 13.325691 5.631809 -3.675170 6.889470 22.541903 -0.128141 -2.286449 56.270239 -8.620429 13.742894 -3.131772 32.295639 13.898157 -21.639605 6.506333 11.742684 
0.443689 0.349488 0.915457 93.061636 6.314011 80.319080 1.224941 -1.983034 -19.027564 -7.194758 1.663363 48.421317 9.465284 16.061802 -30.554491 0.000000 -0.000000 0.000000 -2.083324 -3.006396 -4.950060 0.035037 -7.661401 69.938240 3.546206 -11.830054 -25.922846 0.000000 -0.000000 0.000000 -1.751387 4.095846 25.961895 2.254396 -0.463561 -7.356185 1.593271 -0.010857 2.152679 5.336031 -2.502883 -3.138190 1.694890 -8.357602 12.124654 -21.851598 4.876615 -0.369042 -53.677352 2.330214 4.921972 3.856293 -36.456957 15.682829 5.975904 -4.953760 5.726337 22.836770 0.273245 -2.348056 54.255654 -8.185505 14.365059 -1.629755 35.759563 17.095744 -20.945039 8.325499 12.513737 
0.468442 0.350439 0.922287 94.573949 6.559700 81.712869 0.609119 -1.591306 -17.823927 -6.757715 -0.197594 47.048839 9.807569 16.127054 -31.525417 0.000000 -0.000000 0.000000 -2.384327 -4.738919 -7.609047 0.480159 -8.666119 68.327893 4.122119 -11.046629 -25.474332 0.000000 -0.000000 0.000000 -1.529639 3.551832 25.365849 2.740122 -1.300729 -7.779048 1.663243 -0.575714 2.280349 5.197496 -2.274649 -3.516302 1.527307 -8.380750 11.594308 -21.906206 4.287927 -0.286154 -52.948878 1.055534 6.287989 1.165216 -39.805937 19.632365 6.909472 -5.606839 6.162127 23.454503 -0.371207 -2.884115 52.803177 -7.655527 14.059534 -1.340711 38.906085 18.192799 -21.470001 8.863376 13.559294 
0.491203 0.351580 0.931109 95.619245 6.575881 82.976328 -0.268008 -1.493951 -16.385715 -6.054499 -1.992379 45.235606 10.116503 16.590897 -31.905861 0.000000 -0.000000 0.000000 -2.128166 -5.934302 -9.838811 0.371167 -8.529153 67.674081 4.431374 -10.778959 -25.166009 0.000000 -0.000000 0.000000 -1.037283 3.474073 24.952271 2.841356 -1.450011 -8.103126 1.656930 -1.084821 2.328488 4.788634 -2.391168 -4.018464 1.441426 -8.779975 10.997875 -21.813760 3.182768 -0.444620 -52.800510 -0.741174 7.209293 0.241329 -41.718397 21.722141 6.806518 -5.214383 6.200338 23.587126 -0.603768 -3.393444 52.969076 -7.559124 13.334575 -3.352380 41.232677 15.098513 -21.782341 7.324978 11.343423 
0.513304 0.352425 0.939905 96.600598 6.531438 84.026286 -0.895322 -2.007527 -14.735072 -5.576952 -3.380633 43.282541 10.078044 17.048642 -31.619505 0.000000 -0.000000 0.000000 -1.647815 -5.492466 -11.131364 0.155588 -9.015815 67.372614 4.563599 -10.631019 -24.844888 0.000000 -0.000000 0.000000 -0.759200 3.138725 25.018634 2.898588 -1.307533 -8.108356 1.665880 -1.125890 1.954883 4.606869 -2.402151 -4.527917 1.562279 -9.326753 10.162438 -21.864561 1.743751 -0.817513 -52.808273 -2.517414 8.022114 0.930174 -42.751882 21.186216 6.253861 -4.284118 5.632009 23.701356 -0.027586 -3.347763 53.788802 -7.360849 12.814420 -7.053617 42.229050 10.711671 -21.443955 5.929841 9.252602 
0.534725 0.352818 0.946741 97.575464 6.278673 85.177670 -1.261850 -2.419898 -13.801269 -5.673290 -4.112285 42.275408 9.668468 17.010824 -30.697636 0.000000 -0.000000 0.000000 -1.294786 -4.569794 -11.960244 -0.057227 -9.598879 67.284343 4.457675 -10.674195 -24.573828 0.000000 -0.000000 0.000000 -0.795120 2.679290 25.276993 2.938032 -1.246379 -8.181191 1.633339 -1.008076 1.505090 4.607571 -2.319161 -5.342697 1.730199 -9.854317 9.688993 -22.188288 0.303739 -1.050878 -52.488468 -4.113625 8.585030 2.393986 -43.724970 19.516810 6.509720 -3.812997 5.395380 24.092540 1.097142 -3.110417 54.335964 -6.639324 12.744505 -10.174570 41.707086 7.939045 -21.724662 5.629308 9.350631 
0.554832 0.353023 0.950787 98.735359 5.756679 86.301742 -1.633554 -2.462195 -14.101973 -6.126143 -3.975807 43.271814 9.024544 16.534465 -29.185708 0.000000 -0.000000 0.000000 -1.103101 -3.948573 -12.425602 -0.292621 -9.690952 67.449333 4.068642 -10.867164 -24.400860 0.000000 -0.000000 0.000000 -0.958044 2.328474 25.914527 2.923372 -1.414951 -8.517582 1.548500 -1.028764 1.273591 4.632866 -2.353863 -6.701095 1.859409 -10.297507 9.828542 -22.649522 -1.125476 -1.203320 -51.683095 -5.496408 9.061311 3.786252 -45.059298 17.760827 7.469618 -4.039874 5.203268 24.601155 2.382970 -3.184065 54.487409 -5.433692 12.900234 -11.817157 40.470458 6.101083 -22.282107 5.553110 9.710677 
